<svg xmlns="http://www.w3.org/2000/svg" width="65" height="20" fill="none"><path fill="#FFF" fill-rule="evenodd" d="M42.565 8.454q.32 0 .507.157.263.222.263.756c0 .49-.143.972-.43 1.443a3.274 3.274 0 0 1-1.11 1.12 2.804 2.804 0 0 1-1.51.441c-.574 0-1.314-.206-2.217-.618q-.555 4.035-2.834 6.156-.755.701-1.634 1.168-1.742.923-3.973.923c-1.396 0-2.649-.314-3.758-.943a7.099 7.099 0 0 1-2.557-2.562 6.741 6.741 0 0 1-.924-3.446c0-.53.062-1.06.185-1.591q.142-.598.383-1.153.388-.894 1.034-1.675.749-.905 1.687-1.525.374-.247.777-.448 1.291-.644 2.607-.701.13-.006.258-.006c1.027 0 1.869.275 2.526.825 1.232-1.316 1.848-2.465 1.848-3.447 0-.373-.061-.657-.184-.854q-.185-.324-.524-.589a2.89 2.89 0 0 1-.37-.412q-.123-.177-.123-.501 0-.32.145-.546.055-.087.132-.16A.983.983 0 0 1 33.478 0c.452 0 .821.196 1.109.59.287.392.431.912.431 1.56q0 1.65-1.294 3.358a19.294 19.294 0 0 1-3.111 3.21q-1.817 1.473-4.56 3.447l-1.786 1.325a6.616 6.616 0 0 0 1.263 2.828 6.872 6.872 0 0 0 2.28 1.885q.788.377 1.617.535.598.113 1.217.113 1.68 0 3.017-.677.894-.453 1.634-1.208c1.253-1.257 2.013-3.063 2.28-5.42l-.585-.294q-1.294-.648-2.064-.943c-.514-.216-1.007-.324-1.479-.324-.288 0-.524.06-.709.177-.164.118-.246.265-.246.442 0 .236.082.51.247.825.164.353.246.608.246.765a.798.798 0 0 1-.185.501c-.123.138-.308.206-.554.206a.927.927 0 0 1-.617-.206q-.215-.236-.215-.736c0-.51.164-1.002.493-1.473.349-.471.79-.844 1.324-1.12q.72-.381 1.462-.433h.001q.116-.008.232-.008c.513 0 1.037.108 1.57.324.555.196 1.233.49 2.034.883.657.334 1.222.6 1.694.796q.709.265 1.294.265c.267 0 .483-.05.647-.147q.23-.146.269-.333.008-.039.008-.08c0-.176-.103-.402-.308-.677a2.794 2.794 0 0 1-.277-.413.878.878 0 0 1-.093-.412q0-.282.14-.447.194-.23.661-.23Zm20.895 2.503c-1.007-.903-2.372-1.453-4.097-1.65 1.211-.431 2.136-1.03 2.772-1.796.657-.766.986-1.62.986-2.563q0-.965-.417-1.69-.384-.67-1.123-1.137c-1.027-.648-2.475-.972-4.344-.972-.308 0-.667.01-1.078.03-.41.019-.719.038-.924.058-.616.059-1.212.088-1.787.088a57.1 57.1 0 0 1-2.248-.058l-1.633-.03c-.041 0-.062.059-.062.177s.02.177.062.177c.883 0 1.468.137 1.756.412.287.255.43.795.43 1.62v13.638c0 .57-.07 1.001-.215 1.296a1.105 1.105 0 0 1-.647.589c-.308.098-.76.147-1.355.147-.062 0-.092.059-.092.177s.03.177.092.177c.698 0 1.253-.01 1.663-.03l2.25-.03c.513 0 .975.01 1.385.03.432.02.791.04 1.079.059.739.059 1.396.088 1.971.088 1.335 0 2.547-.235 3.635-.707 1.089-.49 1.94-1.148 2.557-1.973A4.514 4.514 0 0 0 65 14.315q0-.93-.333-1.722-.383-.91-1.207-1.636ZM13.554 5.508c.123-.02.185-.049.185-.088l-.062-3.918q0-.113-.055-.177-.076-.088-.253-.088H.308q-.02 0-.035.008-.057.03-.057.169t.057.168q.015.009.035.009.955 0 1.417.176.289.092.458.288.1.117.158.272.154.412.154 1.296v13.638q0 .883-.185 1.325c-.102.275-.318.462-.647.56-.328.098-.852.147-1.57.147q-.02 0-.036.008-.057.03-.057.169c0 .118.03.177.092.177q1.079 0 1.695-.03l2.31-.03 3.142.03q.709.03 1.972.03c.04 0 .061-.06.061-.177q0-.158-.049-.175l-.012-.002c-.966 0-1.674-.059-2.126-.177-.452-.117-.76-.324-.924-.618-.164-.295-.246-.746-.246-1.355v-6.304h2.187q1.786 0 2.741.707.51.35.756.836.23.452.23 1.02c0 .059.062.088.185.088s.185-.029.185-.088l-.031-1.561q-.03-.471-.03-1.414l.03-2.68c0-.04-.062-.06-.185-.06s-.185.02-.185.06c0 .707-.318 1.266-.955 1.679q-.924.589-2.71.589H5.914V3.652q0-.732.365-1.115.032-.033.066-.063.431-.383 1.355-.383h.924q1.91 0 3.08.825.062.043.12.088 1.077.826 1.544 2.445c.02.06.082.079.185.06ZM55.543 2.21c.226-.275.637-.412 1.232-.412q1.146 0 1.867.553.19.146.351.33.77.855.77 2.534c0 1.197-.287 2.18-.862 2.945q-.316.42-.73.686-.718.463-1.735.463l-1.232-.03V3.682c0-.727.113-1.218.339-1.473Zm-31.276 8.306q-.154.943-.154 1.591 0 .324.062.913c.554-.432 1.13-.864 1.725-1.296q2.803-2.062 4.374-3.417c-.513-1.04-1.355-1.56-2.526-1.56-.8 0-1.52.362-2.156 1.089-.616.707-1.058 1.6-1.325 2.68Zm36.135 7.497q-1.009 1.016-3.042 1.016c-.903 0-1.489-.128-1.755-.383-.267-.275-.4-.736-.4-1.384v-7.099c.471-.04 1.005-.059 1.6-.059 1.541 0 2.691.442 3.451 1.326.76.883 1.14 2.081 1.14 3.593q0 1.988-.994 2.99Z"/></svg>